<svg width="1368" height="140" viewBox="0 0 1368 140" fill="none" xmlns="http://www.w3.org/2000/svg">
<path d="M0 136.866V0H29.0629V44.9205H30.1009C31.9 41.7164 34.4603 38.7908 37.7818 36.1439C45.3935 30.1536 53.9048 27.1584 63.3156 27.1584C76.4631 27.1584 86.6352 30.9894 93.8317 38.6515C101.167 46.3136 104.834 57.4585 104.834 72.0861V136.866H75.7712V76.2654C75.7712 68.464 73.8336 62.5433 69.9586 58.5033C66.2219 54.324 60.8937 52.2343 53.974 52.2343C47.0542 52.2343 41.1725 54.8812 36.3286 60.175C31.4848 65.4688 29.0629 72.2254 29.0629 80.4447V136.866H0Z" fill="white"/>
<path fill-rule="evenodd" clip-rule="evenodd" d="M810.435 83.5792C810.435 99.3213 815.902 112.695 826.835 123.701C837.906 134.567 851.469 140 867.523 140C886.206 140 901.084 133.731 912.155 121.193C916.722 115.76 920.182 109.491 922.535 102.386H891.396C890.15 104.754 888.49 106.844 886.414 108.655C881.155 112.834 874.858 114.924 867.523 114.924C860.88 114.924 854.998 112.486 849.877 107.61C844.757 102.734 841.643 96.8137 840.536 89.8482H923.573V83.5792C923.573 67.6978 918.314 54.324 907.796 43.4578C897.278 32.5915 883.853 27.1584 867.523 27.1584C851.469 27.1584 837.906 32.6612 826.835 43.6668C815.902 54.533 810.435 67.8372 810.435 83.5792ZM892.434 72.0861H841.574C843.235 66.3744 846.348 61.6378 850.915 57.8764C855.482 54.115 861.018 52.2343 867.523 52.2343C874.027 52.2343 879.494 54.1847 883.923 58.0854C888.49 61.8468 891.327 66.5137 892.434 72.0861Z" fill="white"/>
<path fill-rule="evenodd" clip-rule="evenodd" d="M929.719 83.5792C929.719 100.436 934.356 114.088 943.628 124.537C953.039 134.846 964.664 140 978.504 140C987.776 140 996.149 137.214 1003.62 131.641C1006.81 128.994 1009.5 126.208 1011.72 123.283H1012.76V136.866H1041.82V30.2929H1012.76V43.8757H1011.72C1009.5 40.9502 1006.81 38.164 1003.62 35.5171C996.149 29.9447 987.776 27.1584 978.504 27.1584C964.664 27.1584 953.039 32.3826 943.628 42.8309C934.356 53.1399 929.719 66.7227 929.719 83.5792ZM959.82 83.5792C959.82 73.8275 962.242 66.1654 967.086 60.593C971.93 55.0206 978.158 52.2343 985.769 52.2343C993.796 52.2343 1000.3 55.0206 1005.28 60.593C1010.27 66.0261 1012.76 73.6882 1012.76 83.5792C1012.76 93.4703 1010.27 101.202 1005.28 106.774C1000.3 112.208 993.796 114.924 985.769 114.924C978.158 114.924 971.93 112.138 967.086 106.566C962.242 100.993 959.82 93.331 959.82 83.5792Z" fill="white"/>
<path d="M1058.43 30.2929H1087.49V44.9206H1088.53C1090.46 41.4378 1092.82 38.5123 1095.59 36.144C1102.37 30.1536 1110.39 27.1584 1119.67 27.1584C1130.74 27.1584 1140.01 30.5019 1147.48 37.1888C1150.53 40.1143 1153.02 43.3881 1154.96 47.0102H1155.99C1157.93 43.3881 1160.42 40.1143 1163.47 37.1888C1170.94 30.5019 1179.87 27.1584 1190.25 27.1584C1202.98 27.1584 1212.88 31.0591 1219.93 38.8605C1227.13 46.5226 1230.73 57.5978 1230.73 72.0861V136.866H1201.67V75.2206C1201.67 59.8964 1195.09 52.2343 1181.94 52.2343C1175.58 52.2343 1170.18 54.7419 1165.75 59.7571C1161.32 64.7723 1159.11 71.3199 1159.11 79.3999V136.866H1130.05V75.2206C1130.05 59.8964 1123.47 52.2343 1110.32 52.2343C1103.96 52.2343 1098.56 54.7419 1094.13 59.7571C1089.7 64.7723 1087.49 71.3199 1087.49 79.3999V136.866H1058.43V30.2929Z" fill="white"/>
<path d="M762.82 7.30528H733.758V112.286C733.758 125.86 744.772 136.864 758.358 136.864H806.381V111.788H762.82V55.3674H805.135V30.2915H762.82V7.30528Z" fill="white"/>
<path fill-rule="evenodd" clip-rule="evenodd" d="M426.758 136.866V0H455.821V43.8757H456.859C459.073 40.9501 461.772 38.1639 464.955 35.517C472.428 29.9446 480.801 27.1584 490.073 27.1584C503.913 27.1584 515.469 32.3825 524.741 42.8308C534.152 53.1398 538.858 66.7226 538.858 83.5792C538.858 100.436 534.152 114.088 524.741 124.537C515.469 134.845 503.913 140 490.073 140C480.801 140 472.428 137.214 464.955 131.641C461.772 128.994 459.073 126.208 456.859 123.283H455.821V136.866H426.758ZM463.294 60.5929C458.312 66.0261 455.821 73.6881 455.821 83.5792C455.821 93.4702 458.312 101.202 463.294 106.774C468.276 112.208 474.781 114.924 482.808 114.924C490.419 114.924 496.647 112.138 501.491 106.565C506.335 100.993 508.757 93.3309 508.757 83.5792C508.757 73.8275 506.335 66.1654 501.491 60.5929C496.647 55.0205 490.419 52.2343 482.808 52.2343C474.781 52.2343 468.276 55.0205 463.294 60.5929Z" fill="white"/>
<path d="M238.976 136.866V30.2929H268.039V44.9205H269.077C271.014 41.4377 273.367 38.5122 276.135 36.1439C282.916 30.1536 290.943 27.1584 300.216 27.1584C311.287 27.1584 320.56 30.5018 328.033 37.1888C331.078 40.1143 333.569 43.3881 335.506 47.0102H336.544C338.482 43.3881 340.973 40.1143 344.018 37.1888C351.491 30.5018 360.418 27.1584 370.797 27.1584C383.529 27.1584 393.425 31.0591 400.483 38.8605C407.679 46.5226 411.278 57.5978 411.278 72.0861V136.866H382.215V75.2206C382.215 59.8964 375.641 52.2343 362.493 52.2343C356.127 52.2343 350.73 54.7419 346.301 59.7571C341.873 64.7723 339.658 71.3199 339.658 79.3999V136.866H310.595V75.2206C310.595 59.8964 304.022 52.2343 290.874 52.2343C284.508 52.2343 279.111 54.7419 274.682 59.7571C270.253 64.7723 268.039 71.3199 268.039 79.3999V136.866H238.976Z" fill="white"/>
<path d="M550.275 112.287C550.275 125.862 561.289 136.866 574.876 136.866H603.211V111.79H579.338V0H550.275V112.287Z" fill="white"/>
<path fill-rule="evenodd" clip-rule="evenodd" d="M620.714 123.701C609.781 112.695 604.314 99.3213 604.314 83.5792C604.314 67.8371 609.781 54.5329 620.714 43.6667C631.785 32.6612 645.348 27.1584 661.402 27.1584C677.732 27.1584 691.157 32.5915 701.675 43.4577C712.193 54.324 717.452 67.6978 717.452 83.5792V89.8482H634.415C635.522 96.8137 638.636 102.734 643.757 107.61C648.877 112.486 654.759 114.924 661.402 114.924C668.737 114.924 675.034 112.834 680.293 108.655C682.369 106.844 684.03 104.754 685.275 102.386H716.414C714.061 109.491 710.601 115.76 706.034 121.193C694.963 133.731 680.085 140 661.402 140C645.348 140 631.785 134.567 620.714 123.701ZM635.453 72.0861H686.313C685.206 66.5136 682.369 61.8467 677.802 58.0854C673.373 54.1847 667.906 52.2343 661.402 52.2343C654.897 52.2343 649.362 54.115 644.795 57.8764C640.228 61.6378 637.114 66.3743 635.453 72.0861Z" fill="white"/>
<path d="M224.637 30.2824H195.819V84.3544L195.801 84.3537C195.646 91.8574 194.395 98.0604 189.876 102.963C185.009 108.243 179.018 110.883 171.905 110.883C164.791 110.883 158.801 108.243 153.933 102.963C149.414 98.0604 148.59 91.858 148.481 84.3544V30.2824H119.488V87.8655H119.514C119.911 101.312 124.894 112.794 134.464 122.313C144.448 132.119 156.928 137.021 171.905 137.021C186.756 137.021 199.174 132.119 209.158 122.313C218.848 112.794 224.235 101.312 224.637 87.8655V30.2824Z" fill="white"/>
<ellipse cx="1311.77" cy="80.6149" rx="56.2296" ry="56.1786" fill="#FF490C"/>
</svg>
